{"asset":{"version":"2.0","generator":"VECTARY"},"nodes":[{"translation":[0,0,0],"scale":[0.001,0.001,0.001],"rotation":[-0.7071067811865475,0,0,0.7071067811865476],"name":"Image Plane","mesh":0},{"translation":[0.13863908721817658,0.5618980176169054,0.5249779177000619],"scale":[1,1,1],"rotation":[-0.21868332171561847,0.09029233063193176,0.005440434672042416,0.9715942061905559],"name":"Camera - final render","camera":0},{"translation":[0,0.156074209206721,0.25462927373827987],"scale":[0.001982298600180995,0.0016403425552335691,0.0016403425552335691],"rotation":[-0.7046841932581067,0.0584823714650074,0.05848237146500741,0.7046841932581068],"name":"Assets","children":[3]},{"translation":[-5.6539056489563996e-14,0,-76.87993926608726],"scale":[1,1.3677468629276623,2.0188186614036754],"rotation":[0,0,0.7071067811865475,0.7071067811865476],"name":"Backdrop","mesh":1},{"translation":[-0.01470500347251648,0.023091953220847786,-0.21949424117670796],"scale":[0.003004007520430928,0.003004007520430928,0.0030040075204309335],"rotation":[0.15160877584074023,0.8084565196186579,0.5557930234621742,-0.120444800821512],"name":"Big_Protein_Bottle","children":[5,6,7]},{"translation":[-14.705003472516479,219.49424117670796,23.09195322084776],"scale":[3.0040075204309336,3.0040075204309336,3.0040075204309336],"rotation":[-0.0220362580648244,-0.17866007149055085,-0.964670103143105,0.19237092890393254],"name":"MM-Chocolate-peanutButter-2kg 1","mesh":2},{"translation":[0,-1.0658141036401503e-14,-0.2685494534671243],"scale":[10,10,10],"rotation":[0.7071067811865475,0,0,0.7071067811865476],"name":"B0008_01_pCylinder1","mesh":3},{"translation":[0,-1.0658141036401503e-14,-0.2685494534671243],"scale":[10,10,10],"rotation":[0.7071067811865475,0,0,0.7071067811865476],"name":"B0008_01_pCylinder2","mesh":4}],"materials":[{"pbrMetallicRoughness":{"baseColorFactor":[1,1,1,1],"baseColorTexture":{"index":0,"extensions":{"KHR_texture_transform":{"offset":[0,0],"scale":[1,1],"rotation":0}},"texCoord":0},"metallicFactor":0,"roughnessFactor":0.2},"name":"","emissiveTexture":{"index":1,"extensions":{"KHR_texture_transform":{"offset":[0,0],"scale":[1,1],"rotation":0}},"texCoord":0},"emissiveFactor":[0,0,0],"extensions":{},"alphaMode":"OPAQUE","doubleSided":false},{"pbrMetallicRoughness":{"baseColorFactor":[0.7742273142184415,0.6253447208024265,0.14799802298268516,1],"metallicRoughnessTexture":{"index":3,"extensions":{"KHR_texture_transform":{"offset":[0,0],"scale":[2,2],"rotation":0}},"texCoord":0},"metallicFactor":0.06,"roughnessFactor":0.79},"name":"SquarePlane material","normalTexture":{"index":2,"scale":0.4,"extensions":{"KHR_texture_transform":{"offset":[0,0],"scale":[3,3],"rotation":0}},"texCoord":0},"emissiveFactor":[0,0,0],"extensions":{},"alphaMode":"OPAQUE","doubleSided":false},{"pbrMetallicRoughness":{"baseColorFactor":[1,1,1,1],"baseColorTexture":{"index":4,"extensions":{"KHR_texture_transform":{"offset":[0,0],"scale":[1,1],"rotation":0}},"texCoord":0},"metallicFactor":0,"roughnessFactor":1},"name":"mm-choc-p-butter-2kg","emissiveTexture":{"index":5,"extensions":{"KHR_texture_transform":{"offset":[0,0],"scale":[1,1],"rotation":0}},"texCoord":0},"emissiveFactor":[0,0,0],"extensions":{},"alphaMode":"BLEND","doubleSided":true},{"pbrMetallicRoughness":{"baseColorFactor":[0.0006381828421670219,0.0006381828421670219,0.0008046584995130583,1],"metallicFactor":0,"roughnessFactor":0.2},"name":"VRayMtl8","emissiveFactor":[0,0,0],"extensions":{},"alphaMode":"OPAQUE","doubleSided":false}],"textures":[{"sampler":0,"source":0},{"sampler":0,"source":1},{"sampler":0,"source":2},{"sampler":0,"source":3},{"sampler":1,"source":4},{"sampler":1,"source":5}],"images":[{"uri":"Image_Plane_5.jpg","mimeType":"image/jpeg"},{"uri":"Image_Plane_4.jpg","mimeType":"image/jpeg"},{"uri":"Backdrop_-_Wood_Normal_1.jpg","mimeType":"image/jpeg"},{"uri":"metallicTexture&Backdrop_-_Wood_Roughness_1.jpg","mimeType":"image/jpeg"},{"uri":"muscle-m-choclate-p-Butter-2kgpng&muscle-m-choclate-p-Butter-2kgpng_alpha.png","mimeType":"image/png"},{"uri":"muscle-m-choclate-p-Butter-2kgpng.jpg","mimeType":"image/jpeg"}],"samplers":[{"wrapS":10497,"wrapT":10497},{"wrapS":33071,"wrapT":33071}],"meshes":[{"primitives":[{"mode":4,"attributes":{"POSITION":1,"NORMAL":2,"TEXCOORD_0":3},"material":0,"indices":0}]},{"primitives":[{"mode":4,"attributes":{"POSITION":5,"NORMAL":6,"TEXCOORD_0":7},"material":1,"indices":4}]},{"primitives":[{"mode":4,"attributes":{"POSITION":9,"NORMAL":10,"TEXCOORD_0":11},"material":2,"indices":8}]},{"primitives":[{"mode":4,"attributes":{"POSITION":13,"NORMAL":14,"TEXCOORD_0":15},"material":3,"indices":12}]},{"primitives":[{"mode":4,"attributes":{"POSITION":17,"NORMAL":18,"TEXCOORD_0":19},"material":3,"indices":16}]}],"accessors":[{"bufferView":0,"byteOffset":0,"componentType":5125,"count":150,"type":"SCALAR"},{"bufferView":1,"byteOffset":0,"componentType":5126,"count":36,"max":[85.54720306396484,128,0],"min":[-85.54720306396484,-128,0],"type":"VEC3"},{"bufferView":2,"byteOffset":0,"componentType":5126,"count":36,"type":"VEC3"},{"bufferView":3,"byteOffset":0,"componentType":5126,"count":36,"type":"VEC2"},{"bufferView":4,"byteOffset":0,"componentType":5125,"count":108,"type":"SCALAR"},{"bufferView":5,"byteOffset":0,"componentType":5126,"count":40,"max":[768.400634765625,613,697.9957885742188],"min":[-768.400634765625,-613,-7.136013095987437e-7],"type":"VEC3"},{"bufferView":6,"byteOffset":0,"componentType":5126,"count":40,"type":"VEC3"},{"bufferView":7,"byteOffset":0,"componentType":5126,"count":40,"type":"VEC2"},{"bufferView":8,"byteOffset":0,"componentType":5125,"count":124416,"type":"SCALAR"},{"bufferView":9,"byteOffset":0,"componentType":5126,"count":22816,"max":[37.02585220336914,83.47403717041016,-5.137673854827881],"min":[8.203339576721191,50.0982780456543,-35.95516586303711],"type":"VEC3"},{"bufferView":10,"byteOffset":0,"componentType":5126,"count":22816,"type":"VEC3"},{"bufferView":11,"byteOffset":0,"componentType":5126,"count":22816,"type":"VEC2"},{"bufferView":12,"byteOffset":0,"componentType":5125,"count":28512,"type":"SCALAR"},{"bufferView":13,"byteOffset":0,"componentType":5126,"count":5890,"max":[3.9701290130615234,11.213484764099121,3.9701290130615234],"min":[-3.9701290130615234,0.026854945346713066,-3.9701290130615234],"type":"VEC3"},{"bufferView":14,"byteOffset":0,"componentType":5126,"count":5890,"type":"VEC3"},{"bufferView":15,"byteOffset":0,"componentType":5126,"count":5890,"type":"VEC2"},{"bufferView":16,"byteOffset":0,"componentType":5125,"count":17856,"type":"SCALAR"},{"bufferView":17,"byteOffset":0,"componentType":5126,"count":3103,"max":[2.532628297805786,11.528356552124023,2.532628297805786],"min":[-2.532628297805786,10.58340835571289,-2.532628297805786],"type":"VEC3"},{"bufferView":18,"byteOffset":0,"componentType":5126,"count":3103,"type":"VEC3"},{"bufferView":19,"byteOffset":0,"componentType":5126,"count":3103,"type":"VEC2"}],"bufferViews":[{"buffer":0,"byteOffset":0,"byteLength":600,"target":34963},{"buffer":0,"byteOffset":600,"byteLength":432,"target":34962},{"buffer":0,"byteOffset":1032,"byteLength":432,"target":34962},{"buffer":0,"byteOffset":1464,"byteLength":288,"target":34962},{"buffer":0,"byteOffset":1752,"byteLength":432,"target":34963},{"buffer":0,"byteOffset":2184,"byteLength":480,"target":34962},{"buffer":0,"byteOffset":2664,"byteLength":480,"target":34962},{"buffer":0,"byteOffset":3144,"byteLength":320,"target":34962},{"buffer":0,"byteOffset":3464,"byteLength":497664,"target":34963},{"buffer":0,"byteOffset":501128,"byteLength":273792,"target":34962},{"buffer":0,"byteOffset":774920,"byteLength":273792,"target":34962},{"buffer":0,"byteOffset":1048712,"byteLength":182528,"target":34962},{"buffer":0,"byteOffset":1231240,"byteLength":114048,"target":34963},{"buffer":0,"byteOffset":1345288,"byteLength":70680,"target":34962},{"buffer":0,"byteOffset":1415968,"byteLength":70680,"target":34962},{"buffer":0,"byteOffset":1486648,"byteLength":47120,"target":34962},{"buffer":0,"byteOffset":1533768,"byteLength":71424,"target":34963},{"buffer":0,"byteOffset":1605192,"byteLength":37236,"target":34962},{"buffer":0,"byteOffset":1642428,"byteLength":37236,"target":34962},{"buffer":0,"byteOffset":1679664,"byteLength":24824,"target":34962}],"cameras":[{"name":"Camera - final render","type":"perspective","extras":{"targetDistance":1.454191016784572},"perspective":{"aspectRatio":1.4422222222222223,"yfov":0.5253441048502929,"zfar":75.22678131594532,"znear":0.014360009051258843}}],"scene":0,"scenes":[{"nodes":[0,1,2,4],"name":"vegandream-label"}],"extensionsUsed":["KHR_texture_transform"],"buffers":[{"byteLength":1704488,"uri":"vegandream-label.bin"}]}