{"asset":{"version":"2.0","generator":"VECTARY"},"nodes":[{"translation":[-3.552713678800505e-18,-0.031,-1.9539925233402754e-17],"scale":[0.001,0.001,0.0010000000000000002],"rotation":[-0.7059331238974842,0.04072375945733825,0.040723759457338284,0.7059331238974841],"name":"Bottle - baked","children":[1,2,3]},{"translation":[-8.317975565986757,-6.8060060301546645,116.08370460711377],"scale":[0.7577365079617163,1.284683729586743,1.0503087242259066],"rotation":[0.7078667329139359,0.006163717812271442,0.006177459391616281,0.7062921038861657],"name":"Plane","mesh":0},{"translation":[-0.08568531327339457,-0.1606704524868352,4.696086853296064],"scale":[0.9385804174721541,0.9385804174721541,0.9385804174721541],"rotation":[0,0,0,0.9999999999999998],"name":"Tube - baked","mesh":1},{"translation":[-61.96667668147387,16.399898443574482,40.36960549293116],"scale":[0.4528258794405008,0.5230920398991131,0.4001262590965408],"rotation":[-0.01649241171397271,0.7095279552610416,0.7043009283367208,-0.01607119793218068],"name":"vegn2 1","mesh":2},{"translation":[-0.04498101894052054,0.07277433878856783,0.3748360710029533],"scale":[1,1,1],"rotation":[5.551115123125783e-17,-2.7755575615628914e-17,2.7755575615628914e-17,1],"name":"Camera","camera":0}],"materials":[{"pbrMetallicRoughness":{"baseColorFactor":[0.5859729839496614,0.5234431552143247,0.1011451642095999,1],"metallicFactor":1,"roughnessFactor":0.5},"name":"Titanium Satin","emissiveFactor":[0,0,0],"extensions":{},"alphaMode":"OPAQUE","doubleSided":false},{"pbrMetallicRoughness":{"baseColorFactor":[0.030256518852388652,0.030256518852388652,0.028991186547107806,1],"metallicFactor":0,"roughnessFactor":0},"name":"Maverick","emissiveFactor":[0,0,0],"extensions":{},"alphaMode":"OPAQUE","doubleSided":false},{"pbrMetallicRoughness":{"baseColorFactor":[1,1,1,1],"baseColorTexture":{"index":0,"extensions":{"KHR_texture_transform":{"offset":[0,0],"scale":[1,1],"rotation":0}},"texCoord":0},"metallicFactor":0,"roughnessFactor":0.2},"name":"Island Paradise 1","emissiveTexture":{"index":1,"extensions":{"KHR_texture_transform":{"offset":[0,0],"scale":[1,1],"rotation":0}},"texCoord":0},"emissiveFactor":[0,0,0],"extensions":{},"alphaMode":"OPAQUE","doubleSided":false}],"meshes":[{"primitives":[{"mode":4,"attributes":{"POSITION":1,"NORMAL":2,"TEXCOORD_0":3},"material":0,"indices":0}]},{"primitives":[{"mode":4,"attributes":{"POSITION":5,"NORMAL":6,"TEXCOORD_0":7},"material":1,"indices":4}]},{"primitives":[{"mode":4,"attributes":{"POSITION":9,"NORMAL":10,"TEXCOORD_0":11},"material":2,"indices":8}]}],"accessors":[{"bufferView":0,"byteOffset":0,"componentType":5125,"count":384,"type":"SCALAR"},{"bufferView":1,"byteOffset":0,"componentType":5126,"count":130,"max":[20.70891761779785,6.40000057220459,-0.0017791205318644643],"min":[2.0452656745910645,-6.40000057220459,-13.1087007522583],"type":"VEC3"},{"bufferView":2,"byteOffset":0,"componentType":5126,"count":130,"type":"VEC3"},{"bufferView":3,"byteOffset":0,"componentType":5126,"count":130,"type":"VEC2"},{"bufferView":4,"byteOffset":0,"componentType":5125,"count":109728,"type":"SCALAR"},{"bufferView":5,"byteOffset":0,"componentType":5126,"count":35260,"max":[20,20,140.13685607910156],"min":[-20,-20,-5.003393173217773],"type":"VEC3"},{"bufferView":6,"byteOffset":0,"componentType":5126,"count":35260,"type":"VEC3"},{"bufferView":7,"byteOffset":0,"componentType":5126,"count":35260,"type":"VEC2"},{"bufferView":8,"byteOffset":0,"componentType":5125,"count":384,"type":"SCALAR"},{"bufferView":9,"byteOffset":0,"componentType":5126,"count":130,"max":[-92.33460235595703,31.028236389160156,-0.7262807488441467],"min":[-178.56185913085938,-31.028236389160156,-97.58602905273438],"type":"VEC3"},{"bufferView":10,"byteOffset":0,"componentType":5126,"count":130,"type":"VEC3"},{"bufferView":11,"byteOffset":0,"componentType":5126,"count":130,"type":"VEC2"}],"bufferViews":[{"buffer":0,"byteOffset":0,"byteLength":1536,"target":34963},{"buffer":0,"byteOffset":1536,"byteLength":1560,"target":34962},{"buffer":0,"byteOffset":3096,"byteLength":1560,"target":34962},{"buffer":0,"byteOffset":4656,"byteLength":1040,"target":34962},{"buffer":0,"byteOffset":5696,"byteLength":438912,"target":34963},{"buffer":0,"byteOffset":444608,"byteLength":423120,"target":34962},{"buffer":0,"byteOffset":867728,"byteLength":423120,"target":34962},{"buffer":0,"byteOffset":1290848,"byteLength":282080,"target":34962},{"buffer":0,"byteOffset":1572928,"byteLength":1536,"target":34963},{"buffer":0,"byteOffset":1574464,"byteLength":1560,"target":34962},{"buffer":0,"byteOffset":1576024,"byteLength":1560,"target":34962},{"buffer":0,"byteOffset":1577584,"byteLength":1040,"target":34962}],"textures":[{"sampler":0,"source":0},{"sampler":0,"source":1}],"images":[{"uri":"vegn2_1.jpg","mimeType":"image/jpeg"},{"uri":"vegn2.jpg","mimeType":"image/jpeg"}],"samplers":[{"wrapS":10497,"wrapT":10497}],"cameras":[{"name":"Camera","type":"orthographic","extras":{"targetDistance":0.3738126095787564},"orthographic":{"xmag":0.3809106974602661,"ymag":0.2357253261357484,"zfar":34.1682959935921,"znear":0.01111854968370464}}],"scene":0,"scenes":[{"nodes":[0,4],"name":"wine-bottle"}],"extensionsUsed":["KHR_texture_transform"],"buffers":[{"byteLength":1578624,"uri":"wine-bottle.bin"}]}